<?xml version="1.0" encoding="utf-8"?>
<!-- Generator: Adobe Illustrator 25.0.1, SVG Export Plug-In . SVG Version: 6.00 Build 0)  -->
<svg version="1.0" id="katman_1" xmlns="http://www.w3.org/2000/svg" xmlns:xlink="http://www.w3.org/1999/xlink" x="0px" y="0px"
	 viewBox="0 0 560 400" style="enable-background:new 0 0 560 400;" xml:space="preserve">
<style type="text/css">
	.st0{fill:#FFFFFF;} 
	.st1{fill:#F5C933;}
	.st2{fill:#000;}
</style>
<g transform="matrix(.24009342735 0 0 .24009342735 160.04827477051 62.2537506016)">
	<g>
		<path class="st0" d="M-13.5,1244.9c-18.3-24.5-47.8-103.2-64.6-172.9c-7.2-29.9-14.7-69.7-13.6-72.7c0.7-1.6,2.3-1.8,8.9-1.6
			l8.1,0.4l3.3,17.5c13.5,72.4,31.2,131.5,56.2,186.5c5.9,13.3,7,15,8.3,13.1c2.8-3.7,17.4-38,24.8-57.8
			c13.7-37,25.1-78.5,35.8-131.6l5.5-27.7l8.3-0.4l8.3-0.4l-0.8,8.4c-1.1,12.7-6.2,39.1-12.3,64c-17.4,71.6-43.5,142.7-63.4,172.6
			c-3.5,5.2-6.6,9.5-7,9.5C-8,1251.9-10.6,1248.7-13.5,1244.9z"/>
		<path class="st0" d="M114.4,1115.9l0.4-118l8.2-0.4l8.1-0.4v236.5h-8.4h-8.4L114.4,1115.9z"/>
		<path class="st0" d="M243,1124l-0.4-109.9l-38.6-0.2l-38.6-0.2v-7.8V998H333v15.7h-36.5h-36.4v220.1h-8.4h-8.4L243,1124z"/>
		<path class="st0" d="M577.6,1232c-17.5-4.7-27.1-14.1-32.6-31.4c-2.1-6.8-2.2-13.4-2.2-104.9V998l8.2-0.4l8.1-0.4v92.6
			c0,58,0.5,95.5,1.2,100.3c1.6,9.4,4.6,15.4,10,20.3c8.1,7.1,12.2,7.6,54.6,8l38.5,0.2l0.4,7.6l0.4,7.5l-40.2-0.1
			C593.4,1233.6,582.5,1233.2,577.6,1232z"/>
		<path class="st0" d="M696.9,1115.9l0.4-118l8.2-0.4l8.1-0.4v236.5h-8.4h-8.4L696.9,1115.9z"/>
		<path class="st0" d="M825.7,1123.8v-110.1h-38.8h-39v-7.8V998h167.6v15.7H879h-36.4v220.1h-8.4h-8.4V1123.8z"/>
		<path class="st0" d="M1000.6,1185.2v-48.5l-16.6-30.8c-9.2-16.9-25.8-47.5-36.9-67.9c-11.1-20.5-19.9-38-19.5-39
			c1-2.4,14.4-2.3,16.4,0.1c0.7,1,15.7,28,33.2,59.9c17.5,32.1,32.2,58.3,32.6,58.3c0.5,0,14.8-26.3,32.1-58.4
			c17.1-32.1,31.8-59.1,32.6-59.9c1-1.1,4-1.7,9-1.7c6.3,0,7.7,0.4,7.7,1.9c0,1-16.5,32.4-36.8,70l-36.8,68v96.5h-8.4h-8.4V1185.2z"
			/>
		<path class="st0" d="M472.1,890.3C371.5,723,321.3,639.7,320.5,638.8c-0.5-0.5-7.2,2.4-15,6.5c-10.1,5.2-14.2,8-14.7,9.9
			c-0.4,1.4-4.6,26.3-9.4,55.1l-8.8,52.5l-25.6,0.4c-19.9,0.2-25.7,0-26.1-1.2c-0.4-0.8-1.2-36.2-1.9-78.4l-1.4-76.8l13.4-16.3
			c7.4-8.9,12.9-16.5,12.4-16.8c-0.5-0.4-24.7-13.1-53.9-28.6s-53.5-28.5-54.2-28.9c-0.5-0.6-2.1-11-3.3-23.2
			c-1.3-12.1-4.5-42.7-7.1-68c-2.7-25.3-4.8-46.8-4.8-47.9c0-1.8,2.3-2.1,20.4-2.1h20.5l-1.9-4.5c-3.5-8.7-21.9-50.7-35.2-80.4
			c-24-53.8-31-80.7-32.3-124.9c-0.8-25.2,0.6-43.4,5.1-65.8c15.2-75.9,61.1-148.5,118.2-186.8c8.1-5.3,30.5-16.9,31.4-16
			c0.6,0.7,31.6,87.7,91.8,258.3c32.8,92.9,59.8,169,60.1,169.3c0.6,0.5,1.3-0.6,56.2-87.6c35-55.4,45.5-71,46.4-70
			c0.8,0.8,17.5,27.6,37,59.5c19.7,31.8,41.1,66.8,47.9,77.7c11,17.7,12.2,19.4,13.1,16.9c0.6-1.6,3.7-10.3,6.9-19.2
			c7.7-22.1,7.1-20.6,51.9-147.1C679.2,93,699.8,34.7,703.3,24.7C714.5-7.1,747-98.2,748.4-101.7c1.6-4.1,2.3-4,16.4,3.1
			C820-70.9,872.4-0.9,893.9,74.2c14.4,49.9,14.5,106.9,0.4,156.8c-4.8,17.5-9,28.1-24.5,62.7c-10.9,24.1-31.8,72.1-34,77.5
			c-0.5,1.1,3.9,1.4,19.3,1.4c11,0,20.3,0.4,20.5,1c0.4,0.5-0.6,12.5-2.2,26.8c-1.6,14.2-4.8,45.5-7.2,69.3
			c-2.4,23.9-4.8,43.8-5.2,44.3c-0.5,0.5-25,13.5-54.4,29.2c-29.4,15.6-53.7,28.6-54,28.9c-0.2,0.2,5.3,7.7,12.5,16.6l13.1,16
			l-1,63.3c-0.6,34.9-1.3,70-1.7,78.2l-0.7,14.7H749c-14.2,0-25.8-0.2-25.8-0.6c0-0.4-4.1-25-9-54.6c-7-41.4-9.6-54.3-11.2-55.5
			c-2.8-2.2-25.1-13.5-26.5-13.5c-0.6,0-11.8,18.3-25,40.8c-13.1,22.3-34.9,59.3-48.2,82.3c-13.4,22.9-42,71.5-63.3,107.9
			c-21.3,36.5-39.2,66.7-39.7,67.2C499.8,935.4,487.2,915.4,472.1,890.3L472.1,890.3z"/>
	</g>
	<g>
		<path class="st1" d="M325.2,1232.9c0-2.9,3.3-23,5.5-34.1c11.9-58.9,44.3-150.8,67.4-191.9c6.8-12.1,15.9-25.2,17.5-25.2
			c4,0,23.8,35.5,36.8,66.3c24,56.2,48.2,138.6,53.2,180.1l0.7,6.9h-10.1H486l-3.9-18.9c-2.1-10.5-5.3-25.6-7.2-33.5l-3.4-14.5h-56
			h-55.8l-2.8,11.5c-1.4,6.3-4.7,21.3-7.1,33.5l-4.5,21.9h-10C326.5,1235,325.2,1234.7,325.2,1232.9L325.2,1232.9z M466.3,1149.5
			c0-2.2-10.9-37.4-16-52c-10-28.3-32.6-80.8-34.6-80.8c-1.3,0-15.9,32.1-24.4,53.5c-10.6,26.7-26.3,73.9-26.3,79
			c0,1,14.6,1.3,50.7,1.3C445.1,1150.5,466.3,1150.1,466.3,1149.5z"/>
		<path class="st1" d="M237.8,734.8c0.4-7.2,1-15.4,1.2-18.5c0.4-3,1.9-28.5,3.6-56.7c1.8-28.2,3.4-52.3,3.6-53.7
			c0.4-1.4,16.4-15,38.5-32.6l37.9-30.2l9.2-14.7c20.3-32.1,46.7-79,62.1-109.7c4.1-8.2,7.7-14.8,8.3-14.8
			c0.5,0.1,21.5,35.7,46.7,79.2c25.2,43.5,47,81,48.4,83.3l2.5,4.2l7.7-13.1c4.2-7.2,25.9-44.5,48.1-82.7
			c22.2-38.2,40.9-69.7,41.5-70c0.5-0.2,4,5.3,7.6,12.3c24,45.6,41.4,76.3,61.6,109l10.4,16.8l38.4,30.5
			c21.1,16.9,38.4,31.4,38.4,32.3c0,0.8,1.6,26.3,3.6,56.6c1.9,30.3,3.9,61.1,4.3,68.6c0.4,7.5,0.8,14.4,1.1,15.2
			c0.4,1.1-1.9,1.4-8.9,1.4c-6.5,0-9.6-0.5-10-1.4c-0.4-0.8-6.3-28.2-13.1-60.9L717.8,626l-17.7-7.2l-17.7-7.4l-52.8,7.4
			c-29.1,4-70.1,9.6-91.2,12.5l-38.5,5.3L408.4,624l-91.3-12.5l-17.4,7.1c-11.1,4.6-17.6,7.8-18.2,9.3c-0.8,2.2-15,68.4-22.3,104.6
			l-3.1,15.3h-9.5h-9.6L237.8,734.8z"/>
		<path class="st1" d="M459.3,430.9c-22.1-35.1-41.1-65.2-42.3-67.3l-2.4-3.6l9-16.3c5.1-8.9,14.6-25.2,21.2-36.2
			c15.3-25,53.7-83.2,54.9-83.2s37.4,54.9,53.7,81.4c12.1,19.5,31.1,52.7,31.1,54c0,0.4-13.6,22.2-30.3,48.6
			c-16.8,26.5-35.1,55.7-41,65c-5.8,9.3-11.3,17.8-12.2,19.1C499.6,494.3,495,487.5,459.3,430.9z"/>
	</g>
	<g>
		<path class="st2" d="M458.5,819.9c-22.6-38.6-49.6-84.8-60.2-102.8c-10.5-18-19.7-33.9-20.3-35.2c-1-2.1-0.1-4.8,4-13.9
			c2.9-6.3,5.3-11.5,5.3-11.7c0.1-0.1,22.7,5.4,50.2,12.4c27.5,7.1,53.2,13.4,57.2,14.1c7.7,1.3,9.2,1,103-23.3
			c7.6-1.9,14.2-3.1,14.6-2.7c1.3,1.6,10,21.3,10,22.8c0,0.6-14.2,25.6-31.7,55.5c-17.5,29.8-44.7,76.5-60.7,103.6
			c-15.9,27.3-29.3,49.8-29.7,50.3C499.8,889.4,481,858.3,458.5,819.9z"/>
		<path class="st2" d="M206.4,527c-29.8-17.8-54.6-32.7-55.1-32.8c-0.5-0.2-1.7-8.4-2.8-18.5c-4.2-40.4-6.6-64.2-7-68.1l-0.2-4.2
			l8.8-0.4l8.7-0.4l2.3,5.2c1.2,2.9,7.1,18.5,13.3,34.7l11.1,29.5l19.1,13.3l19.2,13.3l18.5,28.7c21.5,33.3,20.7,32.2,19.5,32.1
			C261.2,559.5,236.3,544.9,206.4,527L206.4,527z"/>
		<path class="st2" d="M727.5,549.1c20.6-32.3,34.6-53.5,35.8-54.3c0.8-0.6,12.5-5.9,26.2-11.9l24.7-10.9l8.8-23.5
			c4.8-12.9,10-26.9,11.6-31.2c5.8-16,4.3-14.5,14.6-14.5c6.4,0,9,0.5,9,1.6c0,0.7-1.1,11.5-2.3,23.8c-1.3,12.3-3.3,31-4.3,41.6
			c-1,10.6-2.1,20.4-2.4,21.7c-0.4,1.8-15.8,10-62.7,33.5c-34.1,17-62.4,31-62.7,31C723.4,556,725.1,552.8,727.5,549.1L727.5,549.1z
			"/>
		<path class="st2" d="M268.2,498.9c-68-113.6-114.5-194.1-128.1-222.2c-11.7-24-18.8-46.4-24.4-76c-3.1-17.4-3.1-70.3,0.1-88.6
			c12.9-73.9,46.9-133.9,92.6-163.8c10.5-6.8,25.8-13.3,27.4-11.6c0.5,0.6,6.5,17.5,13.1,37.4c6.6,20,16.9,49.9,22.6,66.3
			c5.8,16.5,12.7,36.3,15.3,43.9c2.7,7.6,6.3,18.2,8.2,23.5c1.9,5.3,12.9,36.5,24.6,69.3c11.6,32.8,23.4,66,26.1,73.6
			c2.8,7.6,5.4,15.2,6,16.9c0.5,1.7,8.3,23.6,17.4,48.8c9.2,25.2,16.3,46.7,16,47.8c-0.5,1.7-48.7,88.4-76.2,136.8
			c-4.1,7.4-9.8,17.5-12.7,22.6c-2.8,5.2-5.4,9.6-6,10C289.7,534,279.9,518.3,268.2,498.9z"/>
		<path class="st2" d="M706,531.7c-1-1.6-10.6-18.6-21.3-37.9c-10.7-19.2-31.2-55.8-45.5-81.3c-14.4-25.4-26.2-47.2-26.5-48.2
			c-0.5-1.7,10.5-33.3,34-98.4c2.9-8,8.3-23.2,12.1-33.8s9.8-27.4,13.3-37.4c3.5-9.9,11.7-33,18.1-51.3
			c6.4-18.2,13.1-37.5,15.1-42.8c13.3-37.4,30.3-86.6,44.9-130.3c6-17.8,11.5-33,11.9-33.6c1.7-1.9,17.6,5.2,29.3,13
			c20.1,13.4,40.9,36.8,56.1,63.3c40.3,70.3,49,159.2,22.8,233.7c-8.6,24.7-13.3,34-51.3,100.1c-29.5,51.6-107.5,183.6-110.1,186.6
			C708.1,534,706.9,533.3,706,531.7L706,531.7z"/>
	</g>
</g>
</svg>
